<?xml version="1.0" standalone="no"?>
<!DOCTYPE svg PUBLIC "-//W3C//DTD SVG 20010904//EN"
 "http://www.w3.org/TR/2001/REC-SVG-20010904/DTD/svg10.dtd">
<svg version="1.0" xmlns="http://www.w3.org/2000/svg"
 width="260.000000pt" height="260.000000pt" viewBox="0 0 260.000000 260.000000"
 preserveAspectRatio="xMidYMid meet">
<metadata>
Created by potrace 1.11, written by Peter Selinger 2001-2013
</metadata>
<g transform="translate(0.000000,260.000000) scale(0.100000,-0.100000)"
fill="#000000" stroke="none">
<path d="M0 1300 l0 -1300 504 0 c450 0 505 2 510 16 8 22 8 23 -12 17 -10 -2
-24 3 -32 12 -11 14 -11 19 4 33 16 16 18 16 37 -7 13 -16 19 -19 19 -8 0 8
18 38 40 66 l40 50 0 270 c0 148 3 276 6 285 9 23 99 23 108 0 3 -9 6 -76 6
-150 l0 -135 21 15 c13 9 23 28 24 46 2 17 10 39 20 50 13 14 16 35 14 97 l-2
78 35 3 35 3 -5 -49 c-4 -49 -4 -50 22 -49 22 2 26 7 27 35 1 17 2 38 3 45 0
6 17 13 36 15 l35 3 -4 -91 c-2 -68 1 -99 13 -124 9 -19 16 -43 16 -55 0 -11
9 -25 20 -31 20 -10 20 -8 20 138 0 102 4 152 12 160 18 18 95 15 102 -4 3 -9
6 -140 6 -292 0 -216 3 -286 15 -317 8 -22 14 -59 15 -82 0 -39 2 -43 24 -43
18 0 25 6 28 23 4 30 42 30 46 0 l3 -23 395 0 394 0 0 1300 0 1300 -1300 0
-1300 0 0 -1300z m1534 455 c5 -13 -14 -15 -134 -15 -118 0 -140 2 -140 15 0
13 22 15 134 15 110 0 135 -3 140 -15z m-82 -180 c21 -43 24 -45 65 -45 37 0
45 4 53 26 9 22 15 25 52 22 39 -3 44 -6 54 -38 7 -19 10 -38 7 -42 -2 -5 -31
-8 -64 -8 -46 0 -59 3 -59 15 0 11 -11 15 -40 15 -43 0 -45 -4 -31 -60 5 -19
11 -53 14 -75 2 -22 9 -49 14 -60 6 -11 14 -56 18 -101 4 -44 10 -86 14 -92 3
-6 36 -12 71 -14 l65 -3 3 -80 c2 -53 8 -85 18 -96 19 -21 35 -79 29 -100 -6
-16 -81 -37 -155 -42 l-35 -2 -6 56 c-3 31 -9 61 -13 68 -4 6 -31 11 -59 11
l-52 0 -3 -132 c-3 -123 -6 -148 -16 -137 -5 5 -15 155 -16 222 l0 48 -52 -3
-53 -3 -9 -68 -9 -69 -54 7 c-30 4 -73 12 -96 19 -40 11 -42 14 -45 53 -2 31
3 47 22 71 23 26 26 39 26 106 l0 76 65 0 c36 0 65 1 66 3 0 1 7 45 14 97 7
52 23 140 34 195 12 55 21 101 21 103 0 1 -16 2 -35 2 -24 0 -35 -5 -35 -15 0
-12 -14 -15 -65 -15 -71 0 -77 7 -55 64 8 22 16 26 50 26 33 0 42 -4 52 -25 9
-21 18 -25 54 -25 36 0 44 4 49 23 15 48 34 67 70 67 32 0 37 -4 57 -45z
m-257 25 c4 -6 -7 -10 -25 -10 -18 0 -29 4 -25 10 3 6 15 10 25 10 10 0 22 -4
25 -10z m450 0 c4 -6 -7 -10 -25 -10 -18 0 -29 4 -25 10 3 6 15 10 25 10 10 0
22 -4 25 -10z m-407 -247 l3 -123 -66 0 -65 0 0 125 0 126 63 -3 62 -3 3 -122z
m447 105 c3 -13 5 -68 3 -123 l-3 -100 -62 -3 -63 -3 0 126 0 125 60 0 c54 0
60 -2 65 -22z m-450 -308 c4 -6 -6 -10 -22 -10 -15 0 -45 -3 -65 -6 -31 -5
-38 -4 -38 10 0 13 11 16 59 16 33 0 63 -4 66 -10z m450 0 c3 -5 -2 -10 -13
-10 -11 0 -40 -3 -66 -6 -38 -6 -46 -4 -46 10 0 13 11 16 59 16 33 0 63 -4 66
-10z"/>
<path d="M1363 1525 c-18 -8 -33 -16 -33 -18 0 -2 21 -4 48 -3 26 0 53 -1 61
-4 7 -3 15 0 18 6 3 8 -51 38 -61 34 -1 -1 -16 -7 -33 -15z"/>
<path d="M1391 1469 c0 -9 -4 -31 -7 -48 -5 -24 -3 -31 10 -31 17 0 19 16 6
65 -4 17 -8 23 -9 14z"/>
</g>
</svg>
